<mxfile host="app.diagrams.net" modified="2020-10-08T15:09:13.229Z" agent="5.0 (Macintosh; Intel Mac OS X 10_15_0) AppleWebKit/537.36 (KHTML, like Gecko) Chrome/80.0.3987.149 Safari/537.36" etag="--GmB1yteXNFRXbhj3UE" version="13.7.8" type="github">
  <diagram id="pNXdAo7Pc4O-7wH9SA8P" name="Page-1">
    <mxGraphModel dx="946" dy="538" grid="0" gridSize="10" guides="0" tooltips="1" connect="1" arrows="1" fold="1" page="1" pageScale="1" pageWidth="827" pageHeight="1169" math="0" shadow="0">
      <root>
        <mxCell id="0" />
        <mxCell id="1" parent="0" />
        <mxCell id="xaU1Ku10Dcmr4jGVHRPu-4" style="edgeStyle=orthogonalEdgeStyle;rounded=0;orthogonalLoop=1;jettySize=auto;html=1;exitX=1;exitY=0.25;exitDx=0;exitDy=0;entryX=0;entryY=0.25;entryDx=0;entryDy=0;sketch=1;" edge="1" parent="1" source="xaU1Ku10Dcmr4jGVHRPu-1" target="xaU1Ku10Dcmr4jGVHRPu-2">
          <mxGeometry relative="1" as="geometry" />
        </mxCell>
        <mxCell id="xaU1Ku10Dcmr4jGVHRPu-1" value="producer" style="whiteSpace=wrap;html=1;aspect=fixed;sketch=1;fillColor=#fff2cc;strokeColor=#d6b656;" vertex="1" parent="1">
          <mxGeometry x="130" y="220" width="80" height="80" as="geometry" />
        </mxCell>
        <mxCell id="xaU1Ku10Dcmr4jGVHRPu-5" style="edgeStyle=orthogonalEdgeStyle;rounded=0;orthogonalLoop=1;jettySize=auto;html=1;exitX=1;exitY=0.25;exitDx=0;exitDy=0;entryX=0;entryY=0.25;entryDx=0;entryDy=0;sketch=1;" edge="1" parent="1" source="xaU1Ku10Dcmr4jGVHRPu-2" target="xaU1Ku10Dcmr4jGVHRPu-3">
          <mxGeometry relative="1" as="geometry" />
        </mxCell>
        <mxCell id="xaU1Ku10Dcmr4jGVHRPu-25" style="edgeStyle=orthogonalEdgeStyle;rounded=0;sketch=1;orthogonalLoop=1;jettySize=auto;html=1;exitX=0;exitY=0.75;exitDx=0;exitDy=0;entryX=1;entryY=0.75;entryDx=0;entryDy=0;" edge="1" parent="1" source="xaU1Ku10Dcmr4jGVHRPu-2" target="xaU1Ku10Dcmr4jGVHRPu-1">
          <mxGeometry relative="1" as="geometry" />
        </mxCell>
        <mxCell id="xaU1Ku10Dcmr4jGVHRPu-2" value="broker" style="whiteSpace=wrap;html=1;aspect=fixed;sketch=1;fillColor=#dae8fc;strokeColor=#6c8ebf;" vertex="1" parent="1">
          <mxGeometry x="290" y="220" width="80" height="80" as="geometry" />
        </mxCell>
        <mxCell id="xaU1Ku10Dcmr4jGVHRPu-26" style="edgeStyle=orthogonalEdgeStyle;rounded=0;sketch=1;orthogonalLoop=1;jettySize=auto;html=1;exitX=0;exitY=0.75;exitDx=0;exitDy=0;entryX=1;entryY=0.75;entryDx=0;entryDy=0;" edge="1" parent="1" source="xaU1Ku10Dcmr4jGVHRPu-3" target="xaU1Ku10Dcmr4jGVHRPu-2">
          <mxGeometry relative="1" as="geometry" />
        </mxCell>
        <mxCell id="xaU1Ku10Dcmr4jGVHRPu-3" value="consumer" style="whiteSpace=wrap;html=1;aspect=fixed;sketch=1;fillColor=#d5e8d4;strokeColor=#82b366;" vertex="1" parent="1">
          <mxGeometry x="450" y="220" width="80" height="80" as="geometry" />
        </mxCell>
        <mxCell id="xaU1Ku10Dcmr4jGVHRPu-6" value="" style="endArrow=none;dashed=1;html=1;" edge="1" parent="1">
          <mxGeometry width="50" height="50" relative="1" as="geometry">
            <mxPoint x="290" y="220" as="sourcePoint" />
            <mxPoint x="290" y="160" as="targetPoint" />
          </mxGeometry>
        </mxCell>
        <mxCell id="xaU1Ku10Dcmr4jGVHRPu-7" value="" style="endArrow=none;dashed=1;html=1;" edge="1" parent="1">
          <mxGeometry width="50" height="50" relative="1" as="geometry">
            <mxPoint x="370" y="220" as="sourcePoint" />
            <mxPoint x="370" y="160" as="targetPoint" />
          </mxGeometry>
        </mxCell>
        <mxCell id="xaU1Ku10Dcmr4jGVHRPu-8" value="" style="endArrow=none;dashed=1;html=1;" edge="1" parent="1">
          <mxGeometry width="50" height="50" relative="1" as="geometry">
            <mxPoint x="130" y="220" as="sourcePoint" />
            <mxPoint x="130" y="160" as="targetPoint" />
          </mxGeometry>
        </mxCell>
        <mxCell id="xaU1Ku10Dcmr4jGVHRPu-9" value="" style="endArrow=none;dashed=1;html=1;" edge="1" parent="1">
          <mxGeometry width="50" height="50" relative="1" as="geometry">
            <mxPoint x="530" y="220" as="sourcePoint" />
            <mxPoint x="530" y="160" as="targetPoint" />
          </mxGeometry>
        </mxCell>
        <mxCell id="xaU1Ku10Dcmr4jGVHRPu-10" value="" style="endArrow=none;html=1;sketch=1;" edge="1" parent="1">
          <mxGeometry width="50" height="50" relative="1" as="geometry">
            <mxPoint x="130" y="190" as="sourcePoint" />
            <mxPoint x="290" y="190" as="targetPoint" />
          </mxGeometry>
        </mxCell>
        <mxCell id="xaU1Ku10Dcmr4jGVHRPu-21" value="生产阶段" style="edgeLabel;html=1;align=center;verticalAlign=middle;resizable=0;points=[];" vertex="1" connectable="0" parent="xaU1Ku10Dcmr4jGVHRPu-10">
          <mxGeometry x="0.0375" y="1" relative="1" as="geometry">
            <mxPoint as="offset" />
          </mxGeometry>
        </mxCell>
        <mxCell id="xaU1Ku10Dcmr4jGVHRPu-15" value="" style="endArrow=none;html=1;sketch=1;" edge="1" parent="1">
          <mxGeometry width="50" height="50" relative="1" as="geometry">
            <mxPoint x="290" y="190" as="sourcePoint" />
            <mxPoint x="370" y="190" as="targetPoint" />
          </mxGeometry>
        </mxCell>
        <mxCell id="xaU1Ku10Dcmr4jGVHRPu-23" value="存储阶段" style="edgeLabel;html=1;align=center;verticalAlign=middle;resizable=0;points=[];" vertex="1" connectable="0" parent="xaU1Ku10Dcmr4jGVHRPu-15">
          <mxGeometry x="0.025" y="2" relative="1" as="geometry">
            <mxPoint as="offset" />
          </mxGeometry>
        </mxCell>
        <mxCell id="xaU1Ku10Dcmr4jGVHRPu-16" value="" style="endArrow=none;html=1;sketch=1;" edge="1" parent="1">
          <mxGeometry width="50" height="50" relative="1" as="geometry">
            <mxPoint x="374" y="190" as="sourcePoint" />
            <mxPoint x="530" y="190" as="targetPoint" />
          </mxGeometry>
        </mxCell>
        <mxCell id="xaU1Ku10Dcmr4jGVHRPu-24" value="消费阶段" style="edgeLabel;html=1;align=center;verticalAlign=middle;resizable=0;points=[];" vertex="1" connectable="0" parent="xaU1Ku10Dcmr4jGVHRPu-16">
          <mxGeometry x="-0.0513" relative="1" as="geometry">
            <mxPoint as="offset" />
          </mxGeometry>
        </mxCell>
        <mxCell id="xaU1Ku10Dcmr4jGVHRPu-27" value="push" style="text;html=1;strokeColor=none;fillColor=none;align=center;verticalAlign=middle;whiteSpace=wrap;rounded=0;sketch=1;" vertex="1" parent="1">
          <mxGeometry x="230" y="210" width="40" height="20" as="geometry" />
        </mxCell>
        <mxCell id="xaU1Ku10Dcmr4jGVHRPu-28" value="push" style="text;html=1;strokeColor=none;fillColor=none;align=center;verticalAlign=middle;whiteSpace=wrap;rounded=0;sketch=1;" vertex="1" parent="1">
          <mxGeometry x="390" y="210" width="40" height="20" as="geometry" />
        </mxCell>
        <mxCell id="xaU1Ku10Dcmr4jGVHRPu-29" value="ack" style="text;html=1;strokeColor=none;fillColor=none;align=center;verticalAlign=middle;whiteSpace=wrap;rounded=0;sketch=1;" vertex="1" parent="1">
          <mxGeometry x="230" y="290" width="40" height="20" as="geometry" />
        </mxCell>
        <mxCell id="xaU1Ku10Dcmr4jGVHRPu-30" value="ack" style="text;html=1;strokeColor=none;fillColor=none;align=center;verticalAlign=middle;whiteSpace=wrap;rounded=0;sketch=1;" vertex="1" parent="1">
          <mxGeometry x="390" y="290" width="40" height="20" as="geometry" />
        </mxCell>
      </root>
    </mxGraphModel>
  </diagram>
</mxfile>
